<?xml version="1.0" encoding="UTF-8" standalone="no"?>
<!-- Created with Inkscape (http://www.inkscape.org/) -->

<svg
   xmlns:dc="http://purl.org/dc/elements/1.1/"
   xmlns:cc="http://creativecommons.org/ns#"
   xmlns:rdf="http://www.w3.org/1999/02/22-rdf-syntax-ns#"
   xmlns:svg="http://www.w3.org/2000/svg"
   xmlns="http://www.w3.org/2000/svg"
   xmlns:sodipodi="http://sodipodi.sourceforge.net/DTD/sodipodi-0.dtd"
   xmlns:inkscape="http://www.inkscape.org/namespaces/inkscape"
   width="191.47771"
   height="304"
   id="svg2"
   version="1.1"
   inkscape:version="0.48.5 r10040"
   sodipodi:docname="fsmElementar.svg">
  <defs
     id="defs4">
    <marker
       inkscape:stockid="Arrow1Mend"
       orient="auto"
       refY="0"
       refX="0"
       id="Arrow1Mend"
       style="overflow:visible">
      <path
         id="path4015"
         d="M 0,0 5,-5 -12.5,0 5,5 0,0 z"
         style="fill-rule:evenodd;stroke:#000000;stroke-width:1pt"
         transform="matrix(-0.4,0,0,-0.4,-4,0)"
         inkscape:connector-curvature="0" />
    </marker>
  </defs>
  <sodipodi:namedview
     id="base"
     pagecolor="#ffffff"
     bordercolor="#666666"
     borderopacity="1.0"
     inkscape:pageopacity="0.0"
     inkscape:pageshadow="2"
     inkscape:zoom="1.6210938"
     inkscape:cx="281.65039"
     inkscape:cy="98.207284"
     inkscape:document-units="px"
     inkscape:current-layer="layer1"
     showgrid="false"
     inkscape:window-width="1920"
     inkscape:window-height="1025"
     inkscape:window-x="-2"
     inkscape:window-y="32"
     inkscape:window-maximized="1"
     fit-margin-top="0"
     fit-margin-left="0"
     fit-margin-right="0"
     fit-margin-bottom="0" />
  <metadata
     id="metadata7">
    <rdf:RDF>
      <cc:Work
         rdf:about="">
        <dc:format>image/svg+xml</dc:format>
        <dc:type
           rdf:resource="http://purl.org/dc/dcmitype/StillImage" />
        <dc:title></dc:title>
      </cc:Work>
    </rdf:RDF>
  </metadata>
  <g
     inkscape:label="Layer 1"
     inkscape:groupmode="layer"
     id="layer1"
     transform="translate(-16.522289,-588.3622)">
    <path
       inkscape:connector-curvature="0"
       style="fill:#000000;fill-opacity:1;stroke:none"
       d="m 56,716.36216 c -13.254834,0 -24,10.74517 -24,24 0,13.25483 10.745166,24.00002 24,24.00002 13.254834,0 24,-10.74519 24,-24.00002 0,-13.25483 -10.745166,-24 -24,-24 z m 0,2 c 12.150265,0 22,9.84974 22,22 0,12.15026 -9.849735,22.00002 -22,22.00002 -12.150265,0 -22,-9.84976 -22,-22.00002 0,-12.15026 9.849735,-22 22,-22 z"
       id="path2985-4" />
    <path
       id="path3808"
       d="m 184,716.36216 c -13.25483,0 -24,10.74517 -24,24 0,13.25483 10.74517,24.00002 24,24.00002 13.25483,0 24,-10.74519 24,-24.00002 0,-13.25483 -10.74517,-24 -24,-24 z m 0,2 c 12.15026,0 22,9.84974 22,22 0,12.15026 -9.84974,22.00002 -22,22.00002 -12.15027,0 -22,-9.84976 -22,-22.00002 0,-12.15026 9.84973,-22 22,-22 z"
       style="fill:#000000;fill-opacity:1;stroke:none"
       inkscape:connector-curvature="0" />
    <path
       inkscape:connector-curvature="0"
       style="fill:#00c000;fill-opacity:1;stroke:none"
       d="m 184,588.3622 c -13.25483,0 -24,10.7452 -24,24 0,13.2548 10.74517,24 24,24 13.25483,0 24,-10.7452 24,-24 0,-13.2548 -10.74517,-24 -24,-24 z m 0,6 c 9.94113,0 18,8.0589 18,18 0,9.9411 -8.05887,18 -18,18 -9.94113,0 -18,-8.0589 -18,-18 0,-9.9411 8.05887,-18 18,-18 z"
       id="path3810" />
    <path
       id="path3812"
       d="m 184,844.36218 c -13.25483,0 -24,10.74517 -24,24 0,13.25482 10.74517,24.00002 24,24.00002 13.25483,0 24,-10.7452 24,-24.00002 0,-13.25483 -10.74517,-24 -24,-24 z m 0,6 c 9.94113,0 18,8.05887 18,18 0,9.94112 -8.05887,18.00002 -18,18.00002 -9.94113,0 -18,-8.0589 -18,-18.00002 0,-9.94113 8.05887,-18 18,-18 z"
       style="fill:#c00000;fill-opacity:1;stroke:none"
       inkscape:connector-curvature="0" />
    <path
       style="fill:none;stroke:#000000;stroke-width:1.5;stroke-linecap:round;stroke-linejoin:miter;stroke-miterlimit:4;stroke-opacity:1;stroke-dasharray:none;marker-end:url(#Arrow1Mend);display:inline"
       d="m 80,199.99999 80,0"
       id="path3814"
       inkscape:connector-type="polyline"
       inkscape:connector-curvature="0"
       inkscape:connection-end="#path3808"
       inkscape:connection-end-point="d4"
       inkscape:connection-start="#path2985-4"
       inkscape:connection-start-point="d4"
       transform="translate(0,540.36218)" />
    <path
       style="fill:none;stroke:#000000;stroke-width:1.5;stroke-linecap:round;stroke-linejoin:miter;stroke-miterlimit:4;stroke-opacity:1;stroke-dasharray:1.5, 4.5;stroke-dashoffset:0;marker-mid:none;marker-end:url(#Arrow1Mend)"
       d="m 184,716.36216 0,-79.99996"
       id="path3816"
       inkscape:connector-type="polyline"
       inkscape:connector-curvature="0"
       inkscape:connection-start="#path3808"
       inkscape:connection-start-point="d4"
       inkscape:connection-end="#path3810"
       inkscape:connection-end-point="d4" />
    <path
       style="fill:none;stroke:#000000;stroke-width:1.5;stroke-linecap:round;stroke-linejoin:miter;stroke-miterlimit:4;stroke-opacity:1;stroke-dasharray:1.5, 4.5;stroke-dashoffset:0;marker-end:url(#Arrow1Mend)"
       d="m 72.970561,216.97055 94.058879,94.05889"
       id="path3818"
       inkscape:connector-type="polyline"
       inkscape:connector-curvature="0"
       inkscape:connection-start="#path2985-4"
       inkscape:connection-start-point="d4"
       inkscape:connection-end="#path3812"
       inkscape:connection-end-point="d4"
       transform="translate(0,540.36218)" />
    <path
       style="fill:none;stroke:#000000;stroke-width:1.5;stroke-linecap:round;stroke-linejoin:miter;stroke-miterlimit:4;stroke-opacity:1;stroke-dasharray:none;marker-end:url(#Arrow1Mend)"
       d="m 17.272289,159.76867 22.083312,22.9407"
       id="path3820"
       inkscape:connector-type="polyline"
       inkscape:connector-curvature="0"
       inkscape:connection-end="#path2985-4"
       inkscape:connection-end-point="d4"
       transform="translate(0,540.36218)" />
    <text
       xml:space="preserve"
       style="font-size:14px;font-style:normal;font-variant:normal;font-weight:normal;font-stretch:normal;text-align:center;line-height:125%;letter-spacing:0px;word-spacing:0px;text-anchor:middle;fill:#000000;fill-opacity:1;stroke:none;font-family:XITS;-inkscape-font-specification:XITS"
       x="120.28915"
       y="181.35905"
       id="text3004"
       sodipodi:linespacing="125%"
       transform="translate(0,540.36218)"><tspan
         sodipodi:role="line"
         id="tspan3006"
         x="120.28915"
         y="181.35905">a</tspan></text>
    <text
       xml:space="preserve"
       style="font-size:14px;font-style:normal;font-variant:normal;font-weight:normal;font-stretch:normal;text-align:center;line-height:125%;letter-spacing:0px;word-spacing:0px;text-anchor:middle;fill:#000000;fill-opacity:1;stroke:none;font-family:XITS;-inkscape-font-specification:XITS"
       x="127.34666"
       y="802.33899"
       id="text3008"
       sodipodi:linespacing="125%"><tspan
         sodipodi:role="line"
         id="tspan3010"
         x="127.34666"
         y="802.33899">∀</tspan></text>
    <text
       sodipodi:linespacing="125%"
       id="text3012"
       y="680.43365"
       x="190.9592"
       style="font-size:14px;font-style:normal;font-variant:normal;font-weight:normal;font-stretch:normal;text-align:center;line-height:125%;letter-spacing:0px;word-spacing:0px;text-anchor:middle;fill:#000000;fill-opacity:1;stroke:none;font-family:XITS;-inkscape-font-specification:XITS"
       xml:space="preserve"><tspan
         y="680.43365"
         x="190.9592"
         id="tspan3014"
         sodipodi:role="line">∀</tspan></text>
  </g>
</svg>
